<svg width="28" height="28" viewBox="0 0 28 28" fill="none" xmlns="http://www.w3.org/2000/svg">
<rect width="28" height="28" rx="14" fill="#282828"/>
<path d="M19.5488 8.44355C18.1659 7.06543 16.3219 6.2998 14.3756 6.2998C10.3293 6.2998 7.05122 9.56647 7.05122 13.5988C7.05122 14.8748 7.40976 16.1508 8.02439 17.2227L7 20.9998L10.8927 19.979C11.9683 20.5404 13.1463 20.8467 14.3756 20.8467C18.4219 20.8467 21.7 17.58 21.7 13.5477C21.6488 11.6592 20.9317 9.82168 19.5488 8.44355ZM17.9098 16.2019C17.7561 16.6102 17.039 17.0186 16.6805 17.0696C16.3732 17.1206 15.9634 17.1206 15.5537 17.0186C15.2976 16.9165 14.939 16.8144 14.5293 16.6102C12.6854 15.8446 11.5073 14.0071 11.4049 13.854C11.3024 13.7519 10.6366 12.8842 10.6366 11.9654C10.6366 11.0467 11.0976 10.6383 11.2512 10.4342C11.4049 10.23 11.6098 10.23 11.7634 10.23C11.8659 10.23 12.0195 10.23 12.1219 10.23C12.2244 10.23 12.378 10.179 12.5317 10.5363C12.6854 10.8936 13.0439 11.8123 13.0951 11.8633C13.1463 11.9654 13.1463 12.0675 13.0951 12.1696C13.0439 12.2717 12.9927 12.3738 12.8902 12.4758C12.7878 12.5779 12.6854 12.7311 12.6341 12.7821C12.5317 12.8842 12.4293 12.9863 12.5317 13.1394C12.6341 13.3436 12.9927 13.905 13.5561 14.4154C14.2732 15.0279 14.8366 15.2321 15.0415 15.3342C15.2463 15.4363 15.3488 15.3852 15.4512 15.2831C15.5537 15.1811 15.9122 14.7727 16.0146 14.5686C16.1171 14.3644 16.2707 14.4154 16.4244 14.4665C16.578 14.5175 17.5 14.9769 17.6537 15.079C17.8585 15.1811 17.961 15.2321 18.0122 15.2831C18.0634 15.4363 18.0634 15.7936 17.9098 16.2019Z" fill="white"/>
</svg>
