<svg width="28" height="28" viewBox="0 0 28 28" fill="none" xmlns="http://www.w3.org/2000/svg">
<rect width="28" height="28" rx="14" fill="#282828"/>
<path d="M18.3778 6.68194C15.7097 6.17242 12.939 6.17242 10.2709 6.68194C9.09084 6.9367 7.60288 8.36336 7.34634 9.4843C6.88455 11.6752 6.88455 13.9171 7.34634 16.1081C7.65419 17.229 9.14215 18.6557 10.2709 18.9104C10.3223 18.9104 10.3736 18.9614 10.3736 19.0123V22.2223C10.3736 22.3751 10.5788 22.477 10.6814 22.3242L12.2207 20.7447C12.2207 20.7447 13.4521 19.4709 13.6573 19.2671C13.6573 19.2671 13.7086 19.2161 13.7599 19.2161C15.2992 19.2671 16.8898 19.1142 18.4291 18.8595C19.6092 18.6047 21.0971 17.178 21.3537 16.0571C21.8154 13.8662 21.8154 11.6243 21.3537 9.43335C21.0458 8.36336 19.5579 6.9367 18.3778 6.68194ZM18.4291 16.2609C18.1725 16.7704 17.8647 17.178 17.3516 17.4328C17.1976 17.4838 17.0437 17.5347 16.8898 17.5857C16.6846 17.5347 16.5306 17.4838 16.3767 17.4328C14.7348 16.7704 13.1956 15.8533 11.9641 14.5285C11.2971 13.7643 10.7327 12.8981 10.2709 11.9809C10.0657 11.5224 9.86047 11.1148 9.70654 10.6562C9.55262 10.2486 9.80916 9.84097 10.0657 9.53525C10.3222 9.22954 10.6301 9.02573 10.9893 8.87288C11.2458 8.72002 11.5024 8.82193 11.7076 9.02573C12.1181 9.53525 12.5285 10.0448 12.8364 10.6052C13.0416 10.9619 12.9903 11.3695 12.6312 11.6243C12.5285 11.6752 12.4772 11.7262 12.3746 11.8281C12.3233 11.879 12.2207 11.93 12.1694 12.0319C12.0668 12.1848 12.0668 12.3376 12.1181 12.4905C12.5285 13.6624 13.2982 14.5795 14.4783 15.089C14.6835 15.1909 14.8374 15.2419 15.094 15.2419C15.4531 15.1909 15.6071 14.7833 15.8636 14.5795C16.1202 14.3757 16.428 14.3757 16.7359 14.5285C16.9924 14.6814 17.249 14.8852 17.5568 15.089C17.8133 15.2928 18.0699 15.4457 18.3264 15.6495C18.4804 15.7514 18.5317 16.0062 18.4291 16.2609ZM16.2741 12.4395C16.1715 12.4395 16.2228 12.4395 16.2741 12.4395C16.0688 12.4395 16.0175 12.3376 15.9662 12.1848C15.9662 12.0829 15.9662 11.93 15.9149 11.8281C15.8636 11.6243 15.761 11.4205 15.5558 11.2676C15.4531 11.2167 15.3505 11.1657 15.2479 11.1148C15.094 11.0638 14.9914 11.0638 14.8374 11.0638C14.6835 11.0129 14.6322 10.911 14.6322 10.7581C14.6322 10.6562 14.7861 10.5543 14.8887 10.5543C15.7097 10.6052 16.3254 11.0638 16.428 12.0319C16.428 12.0829 16.428 12.1848 16.428 12.2357C16.428 12.3376 16.3767 12.4395 16.2741 12.4395ZM15.761 10.1976C15.5044 10.0957 15.2479 9.99382 14.9401 9.94287C14.8374 9.94287 14.6835 9.89192 14.5809 9.89192C14.427 9.89192 14.3243 9.79001 14.3757 9.63716C14.3757 9.4843 14.4783 9.3824 14.6322 9.43335C15.1453 9.4843 15.6071 9.58621 16.0688 9.79001C16.9924 10.2486 17.5055 11.0129 17.6594 12.0319C17.6594 12.0829 17.6594 12.1338 17.6594 12.1848C17.6594 12.2867 17.6594 12.3886 17.6594 12.5414C17.6594 12.5924 17.6594 12.6433 17.6594 12.6943C17.6081 12.8981 17.249 12.949 17.1976 12.6943C17.1976 12.6433 17.1463 12.5414 17.1463 12.4905C17.1463 12.0319 17.0437 11.5733 16.8385 11.1657C16.5306 10.7071 16.1715 10.4014 15.761 10.1976ZM18.5317 13.2547C18.3777 13.2547 18.2751 13.1019 18.2751 12.949C18.2751 12.6433 18.2238 12.3376 18.1725 12.0319C17.9673 10.4014 16.6332 9.07669 15.0427 8.82193C14.7861 8.77097 14.5296 8.77097 14.3243 8.72002C14.1704 8.72002 13.9652 8.72002 13.9139 8.51621C13.8626 8.36336 14.0165 8.2105 14.1704 8.2105C14.2217 8.2105 14.273 8.2105 14.273 8.2105C14.3757 8.2105 16.3767 8.26145 14.273 8.2105C16.428 8.26145 18.2238 9.68811 18.583 11.8281C18.6343 12.1848 18.6856 12.5414 18.6856 12.949C18.7882 13.1019 18.6856 13.2547 18.5317 13.2547Z" fill="white"/>
</svg>
