<svg width="28" height="28" viewBox="0 0 28 28" fill="none" xmlns="http://www.w3.org/2000/svg">
<rect width="28" height="28" rx="14" fill="#282828"/>
<path d="M14 8.26506C15.8554 8.26506 16.1084 8.26506 16.8675 8.26506C17.5422 8.26506 17.8795 8.43374 18.1325 8.51807C18.4699 8.68675 18.7229 8.77109 18.9759 9.0241C19.2289 9.27711 19.3976 9.53012 19.4819 9.86747C19.5663 10.1205 19.6506 10.4578 19.7349 11.1325C19.7349 11.8916 19.7349 12.0602 19.7349 14C19.7349 15.9398 19.7349 16.1084 19.7349 16.8675C19.7349 17.5422 19.5663 17.8795 19.4819 18.1325C19.3133 18.4699 19.2289 18.7229 18.9759 18.9759C18.7229 19.2289 18.4699 19.3976 18.1325 19.4819C17.8795 19.5663 17.5422 19.6506 16.8675 19.7349C16.1084 19.7349 15.9398 19.7349 14 19.7349C12.0602 19.7349 11.8916 19.7349 11.1325 19.7349C10.4578 19.7349 10.1205 19.5663 9.86747 19.4819C9.53012 19.3133 9.27711 19.2289 9.0241 18.9759C8.77109 18.7229 8.60241 18.4699 8.51807 18.1325C8.43374 17.8795 8.3494 17.5422 8.26506 16.8675C8.26506 16.1084 8.26506 15.9398 8.26506 14C8.26506 12.0602 8.26506 11.8916 8.26506 11.1325C8.26506 10.4578 8.43374 10.1205 8.51807 9.86747C8.68675 9.53012 8.77109 9.27711 9.0241 9.0241C9.27711 8.77109 9.53012 8.60241 9.86747 8.51807C10.1205 8.43374 10.4578 8.3494 11.1325 8.26506C11.8916 8.26506 12.1446 8.26506 14 8.26506ZM14 7C12.0602 7 11.8916 7 11.1325 7C10.3735 7 9.86747 7.16868 9.44578 7.33735C9.0241 7.50602 8.60241 7.75904 8.18072 8.18072C7.75904 8.60241 7.59036 8.93976 7.33735 9.44578C7.16868 9.86747 7.08434 10.3735 7 11.1325C7 11.8916 7 12.1446 7 14C7 15.9398 7 16.1084 7 16.8675C7 17.6265 7.16868 18.1325 7.33735 18.5542C7.50602 18.9759 7.75904 19.3976 8.18072 19.8193C8.60241 20.241 8.93976 20.4096 9.44578 20.6627C9.86747 20.8313 10.3735 20.9157 11.1325 21C11.8916 21 12.1446 21 14 21C15.8554 21 16.1084 21 16.8675 21C17.6265 21 18.1325 20.8313 18.5542 20.6627C18.9759 20.494 19.3976 20.241 19.8193 19.8193C20.241 19.3976 20.4096 19.0602 20.6627 18.5542C20.8313 18.1325 20.9157 17.6265 21 16.8675C21 16.1084 21 15.8554 21 14C21 12.1446 21 11.8916 21 11.1325C21 10.3735 20.8313 9.86747 20.6627 9.44578C20.494 9.0241 20.241 8.60241 19.8193 8.18072C19.3976 7.75904 19.0602 7.59036 18.5542 7.33735C18.1325 7.16868 17.6265 7.08434 16.8675 7C16.1084 7 15.9398 7 14 7Z" fill="white"/>
<path d="M14 10.3735C11.9759 10.3735 10.3735 11.9759 10.3735 14C10.3735 16.0241 11.9759 17.6265 14 17.6265C16.0241 17.6265 17.6265 16.0241 17.6265 14C17.6265 11.9759 16.0241 10.3735 14 10.3735ZM14 16.3614C12.7349 16.3614 11.6386 15.3494 11.6386 14C11.6386 12.7349 12.6506 11.6386 14 11.6386C15.2651 11.6386 16.3614 12.6506 16.3614 14C16.3614 15.2651 15.2651 16.3614 14 16.3614Z" fill="white"/>
<path d="M17.7108 11.1325C18.1766 11.1325 18.5542 10.7549 18.5542 10.2892C18.5542 9.82338 18.1766 9.44578 17.7108 9.44578C17.2451 9.44578 16.8675 9.82338 16.8675 10.2892C16.8675 10.7549 17.2451 11.1325 17.7108 11.1325Z" fill="white"/>
</svg>
