<svg width="24" height="24" viewBox="0 0 24 24" fill="none" xmlns="http://www.w3.org/2000/svg">
<path d="M12.66 2.51814L12.63 2.58814L9.72996 9.31814H6.87996C6.19996 9.31814 5.54996 9.45814 4.95996 9.70814L6.70996 5.52814L6.74996 5.42814L6.81996 5.26814C6.83996 5.20814 6.85996 5.14814 6.88996 5.09814C8.19996 2.06814 9.67996 1.37814 12.66 2.51814Z" stroke="#BF1A1F" stroke-width="1.5" stroke-linecap="round" stroke-linejoin="round"/>
<path d="M18.05 9.51856C17.6 9.37856 17.12 9.31855 16.64 9.31855H9.72998L12.63 2.58855L12.66 2.51855C12.81 2.56855 12.95 2.63855 13.1 2.69855L15.31 3.62855C16.54 4.13855 17.4 4.66855 17.92 5.30855C18.02 5.42855 18.1 5.53855 18.17 5.66855C18.26 5.80855 18.33 5.94855 18.37 6.09855C18.41 6.18855 18.44 6.27855 18.46 6.35855C18.73 7.19855 18.57 8.22856 18.05 9.51856Z" stroke="#BF1A1F" stroke-width="1.5" stroke-linecap="round" stroke-linejoin="round"/>
<path d="M21.5217 14.1984V16.1484C21.5217 16.3484 21.5117 16.5484 21.5017 16.7484C21.3117 20.2384 19.3617 21.9984 15.6617 21.9984H7.86172C7.62172 21.9984 7.38172 21.9784 7.15172 21.9484C3.97172 21.7384 2.27172 20.0384 2.06172 16.8584C2.03172 16.6284 2.01172 16.3884 2.01172 16.1484V14.1984C2.01172 12.1884 3.23172 10.4584 4.97172 9.70836C5.57172 9.45836 6.21172 9.31836 6.89172 9.31836H16.6517C17.1417 9.31836 17.6217 9.38836 18.0617 9.51836C20.0517 10.1284 21.5217 11.9884 21.5217 14.1984Z" stroke="#BF1A1F" stroke-width="1.5" stroke-linecap="round" stroke-linejoin="round"/>
<path d="M6.71 5.52832L4.96 9.70832C3.22 10.4583 2 12.1883 2 14.1983V11.2683C2 8.42832 4.02 6.05832 6.71 5.52832Z" stroke="#BF1A1F" stroke-width="1.5" stroke-linecap="round" stroke-linejoin="round"/>
<path d="M21.5186 11.2677V14.1977C21.5186 11.9977 20.0586 10.1277 18.0586 9.52766C18.5786 8.22766 18.7286 7.20766 18.4786 6.35766C18.4586 6.26766 18.4286 6.17766 18.3886 6.09766C20.2486 7.05766 21.5186 9.02766 21.5186 11.2677Z" stroke="#BF1A1F" stroke-width="1.5" stroke-linecap="round" stroke-linejoin="round"/>
</svg>
