<svg width="24" height="24" viewBox="0 0 24 24" fill="none" xmlns="http://www.w3.org/2000/svg">
<path d="M14.4399 19.0503L15.9599 20.5703L18.9999 17.5303" stroke="#BF1A1F" stroke-width="1.5" stroke-linecap="round" stroke-linejoin="round"/>
<path d="M12.1601 10.87C12.0601 10.86 11.9401 10.86 11.8301 10.87C9.4501 10.79 7.5601 8.84 7.5601 6.44C7.5501 3.99 9.5401 2 11.9901 2C14.4401 2 16.4301 3.99 16.4301 6.44C16.4301 8.84 14.5301 10.79 12.1601 10.87Z" stroke="#BF1A1F" stroke-width="1.5" stroke-linecap="round" stroke-linejoin="round"/>
<path d="M11.99 21.8097C10.17 21.8097 8.36004 21.3497 6.98004 20.4297C4.56004 18.8097 4.56004 16.1697 6.98004 14.5597C9.73004 12.7197 14.24 12.7197 16.99 14.5597" stroke="#BF1A1F" stroke-width="1.5" stroke-linecap="round" stroke-linejoin="round"/>
</svg>
